<svg xmlns="http://www.w3.org/2000/svg" viewBox="0 0 1200 630" width="1200" height="630">
  <!-- Background -->
  <rect width="1200" height="630" fill="#f8faf6"/>

  <!-- Left accent bar -->
  <rect x="0" y="0" width="8" height="630" fill="#fca311"/>

  <!-- Top header band -->
  <rect x="0" y="0" width="1200" height="90" fill="#14213d"/>

  <!-- Logo / icon in header -->
  <g transform="translate(48, 18) scale(0.54)">
    <rect x="15" y="25" width="70" height="60" rx="10" fill="#14213d" stroke="#fca311" stroke-width="3"/>
    <path d="M15 35 Q 15 25 25 25 L 75 25 Q 85 25 85 35 L 85 45 L 15 45 Z" fill="#fca311"/>
    <rect x="30" y="15" width="8" height="20" rx="4" fill="#ffffff"/>
    <rect x="62" y="15" width="8" height="20" rx="4" fill="#ffffff"/>
    <rect x="25" y="55" width="12" height="10" rx="2" fill="#ffffff" opacity="0.8"/>
    <rect x="44" y="55" width="12" height="10" rx="2" fill="#ffffff" opacity="0.8"/>
    <rect x="63" y="55" width="12" height="10" rx="2" fill="#ffffff" opacity="0.8"/>
    <rect x="25" y="70" width="12" height="10" rx="2" fill="#ffffff" opacity="0.8"/>
    <rect x="44" y="70" width="12" height="10" rx="2" fill="#fca311"/>
    <rect x="63" y="70" width="12" height="10" rx="2" fill="#ffffff" opacity="0.8"/>
  </g>

  <!-- Site name -->
  <text x="110" y="58" font-family="system-ui, -apple-system, sans-serif" font-size="30" font-weight="700" fill="#ffffff">Dal Planner</text>
  <text x="112" y="76" font-family="system-ui, -apple-system, sans-serif" font-size="13" fill="#fca311" opacity="0.9">Dalhousie Class Scheduler</text>

  <!-- Tagline -->
  <text x="600" y="168" font-family="system-ui, -apple-system, sans-serif" font-size="42" font-weight="700" fill="#14213d" text-anchor="middle">Plan your semester.</text>
  <text x="600" y="212" font-family="system-ui, -apple-system, sans-serif" font-size="20" fill="#5a6f52" text-anchor="middle">Browse Dalhousie courses, spot conflicts, and build your schedule.</text>

  <!-- Mock UI card: Browse panel -->
  <rect x="48" y="244" width="680" height="340" rx="12" fill="#ffffff" stroke="#dde8d8" stroke-width="1.5" filter="url(#shadow)"/>

  <!-- Card header -->
  <rect x="48" y="244" width="680" height="44" rx="12" fill="#eaf4e4"/>
  <rect x="48" y="268" width="680" height="20" fill="#eaf4e4"/>
  <text x="70" y="272" font-family="system-ui, sans-serif" font-size="13" font-weight="600" fill="#3a5c32">Browse Courses</text>

  <!-- Search bar mockup -->
  <rect x="68" y="302" width="440" height="32" rx="8" fill="#f4f8f2" stroke="#c2d5b8" stroke-width="1"/>
  <text x="86" y="323" font-family="system-ui, sans-serif" font-size="12" fill="#9CA3AF">Search by course name, code, or CRN…</text>

  <!-- Filter chips -->
  <rect x="68" y="346" width="60" height="22" rx="11" fill="#14213d"/>
  <text x="98" y="362" font-family="system-ui, sans-serif" font-size="11" fill="#ffffff" text-anchor="middle">CSCI</text>
  <rect x="136" y="346" width="76" height="22" rx="11" fill="#f0fdf4" stroke="#c2d5b8" stroke-width="1"/>
  <text x="174" y="362" font-family="system-ui, sans-serif" font-size="11" fill="#374151" text-anchor="middle">All Types</text>
  <rect x="220" y="346" width="88" height="22" rx="11" fill="#f0fdf4" stroke="#c2d5b8" stroke-width="1"/>
  <text x="264" y="362" font-family="system-ui, sans-serif" font-size="11" fill="#374151" text-anchor="middle">Available Only</text>

  <!-- Table header -->
  <rect x="68" y="380" width="640" height="24" rx="4" fill="#e8f3e3"/>
  <text x="80" y="396" font-family="system-ui, sans-serif" font-size="10" font-weight="600" fill="#6B7280" letter-spacing="0.04em">CRN</text>
  <text x="130" y="396" font-family="system-ui, sans-serif" font-size="10" font-weight="600" fill="#6B7280" letter-spacing="0.04em">COURSE</text>
  <text x="240" y="396" font-family="system-ui, sans-serif" font-size="10" font-weight="600" fill="#6B7280" letter-spacing="0.04em">TYPE</text>
  <text x="300" y="396" font-family="system-ui, sans-serif" font-size="10" font-weight="600" fill="#6B7280" letter-spacing="0.04em">TIME</text>
  <text x="410" y="396" font-family="system-ui, sans-serif" font-size="10" font-weight="600" fill="#6B7280" letter-spacing="0.04em">LOCATION</text>
  <text x="540" y="396" font-family="system-ui, sans-serif" font-size="10" font-weight="600" fill="#6B7280" letter-spacing="0.04em">AVAILABILITY</text>

  <!-- Table rows -->
  <!-- Row 1 - selected -->
  <rect x="68" y="404" width="640" height="30" fill="#f0fdf4" stroke="#bbf7d0" stroke-width="0.5"/>
  <rect x="68" y="404" width="4" height="30" fill="#22c55e"/>
  <text x="80" y="424" font-family="system-ui, sans-serif" font-size="11" fill="#374151">10042</text>
  <text x="130" y="424" font-family="system-ui, sans-serif" font-size="11" font-weight="600" fill="#14213d">CSCI 1105</text>
  <text x="240" y="424" font-family="system-ui, sans-serif" font-size="11" fill="#374151">LEC</text>
  <text x="300" y="424" font-family="system-ui, sans-serif" font-size="11" fill="#374151">MWF 10:05–11:25</text>
  <text x="410" y="424" font-family="system-ui, sans-serif" font-size="11" fill="#374151">Halifax</text>
  <rect x="540" y="411" width="60" height="16" rx="8" fill="#dcfce7"/>
  <text x="570" y="423" font-family="system-ui, sans-serif" font-size="10" fill="#166534" text-anchor="middle">120 / 130</text>

  <!-- Row 2 - conflict -->
  <rect x="68" y="434" width="640" height="30" fill="#fff7ed" stroke="#fed7aa" stroke-width="0.5"/>
  <rect x="68" y="434" width="4" height="30" fill="#f97316"/>
  <text x="80" y="454" font-family="system-ui, sans-serif" font-size="11" fill="#374151">10043</text>
  <text x="130" y="454" font-family="system-ui, sans-serif" font-size="11" font-weight="600" fill="#14213d">CSCI 1105</text>
  <text x="240" y="454" font-family="system-ui, sans-serif" font-size="11" fill="#374151">TUT</text>
  <text x="300" y="454" font-family="system-ui, sans-serif" font-size="11" fill="#374151">T 13:35–14:25</text>
  <text x="410" y="454" font-family="system-ui, sans-serif" font-size="11" fill="#374151">Halifax</text>
  <rect x="540" y="441" width="60" height="16" rx="8" fill="#fef2f2"/>
  <text x="570" y="453" font-family="system-ui, sans-serif" font-size="10" fill="#991b1b" text-anchor="middle">CONFLICT</text>

  <!-- Row 3 -->
  <rect x="68" y="464" width="640" height="30" fill="#ffffff"/>
  <text x="80" y="484" font-family="system-ui, sans-serif" font-size="11" fill="#374151">10696</text>
  <text x="130" y="484" font-family="system-ui, sans-serif" font-size="11" font-weight="600" fill="#14213d">CSCI 1107</text>
  <text x="240" y="484" font-family="system-ui, sans-serif" font-size="11" fill="#374151">LEC</text>
  <text x="300" y="484" font-family="system-ui, sans-serif" font-size="11" fill="#374151">TR 11:35–12:55</text>
  <text x="410" y="484" font-family="system-ui, sans-serif" font-size="11" fill="#374151">Halifax</text>
  <rect x="540" y="471" width="60" height="16" rx="8" fill="#dcfce7"/>
  <text x="570" y="483" font-family="system-ui, sans-serif" font-size="10" fill="#166534" text-anchor="middle">87 / 100</text>

  <!-- Row 4 -->
  <rect x="68" y="494" width="640" height="30" fill="#f9fafb"/>
  <text x="80" y="514" font-family="system-ui, sans-serif" font-size="11" fill="#374151">10512</text>
  <text x="130" y="514" font-family="system-ui, sans-serif" font-size="11" font-weight="600" fill="#14213d">CSCI 2110</text>
  <text x="240" y="514" font-family="system-ui, sans-serif" font-size="11" fill="#374151">LEC</text>
  <text x="300" y="514" font-family="system-ui, sans-serif" font-size="11" fill="#374151">MWF 8:35–9:25</text>
  <text x="410" y="514" font-family="system-ui, sans-serif" font-size="11" fill="#374151">Online</text>
  <rect x="540" y="501" width="60" height="16" rx="8" fill="#fef3c7"/>
  <text x="570" y="513" font-family="system-ui, sans-serif" font-size="10" fill="#92400e" text-anchor="middle">2 left</text>

  <!-- Row 5 -->
  <rect x="68" y="524" width="640" height="30" fill="#ffffff"/>
  <text x="80" y="544" font-family="system-ui, sans-serif" font-size="11" fill="#374151">11204</text>
  <text x="130" y="544" font-family="system-ui, sans-serif" font-size="11" font-weight="600" fill="#14213d">CSCI 2141</text>
  <text x="240" y="544" font-family="system-ui, sans-serif" font-size="11" fill="#374151">LEC</text>
  <text x="300" y="544" font-family="system-ui, sans-serif" font-size="11" fill="#374151">TR 14:35–15:55</text>
  <text x="410" y="544" font-family="system-ui, sans-serif" font-size="11" fill="#374151">Halifax</text>
  <rect x="540" y="531" width="60" height="16" rx="8" fill="#dcfce7"/>
  <text x="570" y="543" font-family="system-ui, sans-serif" font-size="10" fill="#166534" text-anchor="middle">45 / 60</text>

  <!-- Mock UI card: Selected panel -->
  <rect x="756" y="244" width="396" height="340" rx="12" fill="#f2f8ef" stroke="#c2d5b8" stroke-width="1.5"/>

  <!-- Selected panel header -->
  <rect x="756" y="244" width="396" height="44" rx="12" fill="#e4f0df"/>
  <rect x="756" y="268" width="396" height="20" fill="#e4f0df"/>
  <text x="776" y="272" font-family="system-ui, sans-serif" font-size="13" font-weight="600" fill="#2d4a26">Selected Classes</text>
  <rect x="1068" y="256" width="64" height="20" rx="6" fill="#14213d"/>
  <text x="1100" y="270" font-family="system-ui, sans-serif" font-size="10" fill="#ffffff" text-anchor="middle">Copy CRNs</text>

  <!-- Selected table header -->
  <rect x="768" y="300" width="372" height="20" rx="3" fill="#ddeeda"/>
  <text x="778" y="314" font-family="system-ui, sans-serif" font-size="9" font-weight="600" fill="#6B7280" letter-spacing="0.04em">CRN</text>
  <text x="820" y="314" font-family="system-ui, sans-serif" font-size="9" font-weight="600" fill="#6B7280" letter-spacing="0.04em">COURSE</text>
  <text x="900" y="314" font-family="system-ui, sans-serif" font-size="9" font-weight="600" fill="#6B7280" letter-spacing="0.04em">TYPE</text>
  <text x="948" y="314" font-family="system-ui, sans-serif" font-size="9" font-weight="600" fill="#6B7280" letter-spacing="0.04em">COURSE NAME</text>

  <!-- Selected rows -->
  <rect x="768" y="320" width="372" height="26" fill="#ffffff"/>
  <text x="778" y="337" font-family="system-ui, sans-serif" font-size="10" fill="#374151">10042</text>
  <text x="820" y="337" font-family="system-ui, sans-serif" font-size="10" font-weight="600" fill="#14213d">CSCI 1105</text>
  <text x="900" y="337" font-family="system-ui, sans-serif" font-size="10" fill="#374151">LEC</text>
  <text x="948" y="337" font-family="system-ui, sans-serif" font-size="10" fill="#374151">Intro to Comp…</text>

  <rect x="768" y="346" width="372" height="26" fill="#f9fafb"/>
  <text x="778" y="363" font-family="system-ui, sans-serif" font-size="10" fill="#374151">10696</text>
  <text x="820" y="363" font-family="system-ui, sans-serif" font-size="10" font-weight="600" fill="#14213d">CSCI 1107</text>
  <text x="900" y="363" font-family="system-ui, sans-serif" font-size="10" fill="#374151">LEC</text>
  <text x="948" y="363" font-family="system-ui, sans-serif" font-size="10" fill="#374151">Social Computing</text>
  <rect x="1068" y="351" width="52" height="14" rx="7" fill="#fef2f2" stroke="#fecaca" stroke-width="0.5"/>
  <text x="1094" y="362" font-family="system-ui, sans-serif" font-size="8" font-weight="700" fill="#991b1b" text-anchor="middle">CONFLICT</text>

  <rect x="768" y="372" width="372" height="26" fill="#ffffff"/>
  <text x="778" y="389" font-family="system-ui, sans-serif" font-size="10" fill="#374151">10512</text>
  <text x="820" y="389" font-family="system-ui, sans-serif" font-size="10" font-weight="600" fill="#14213d">CSCI 2110</text>
  <text x="900" y="389" font-family="system-ui, sans-serif" font-size="10" fill="#374151">LEC</text>
  <text x="948" y="389" font-family="system-ui, sans-serif" font-size="10" fill="#374151">Data Structures</text>

  <rect x="768" y="398" width="372" height="26" fill="#f9fafb"/>
  <text x="778" y="415" font-family="system-ui, sans-serif" font-size="10" fill="#374151">11204</text>
  <text x="820" y="415" font-family="system-ui, sans-serif" font-size="10" font-weight="600" fill="#14213d">CSCI 2141</text>
  <text x="900" y="415" font-family="system-ui, sans-serif" font-size="10" fill="#374151">LEC</text>
  <text x="948" y="415" font-family="system-ui, sans-serif" font-size="10" fill="#374151">Intro to Logic</text>

  <!-- Total credits badge -->
  <rect x="768" y="444" width="372" height="1" fill="#c2d5b8"/>
  <text x="778" y="470" font-family="system-ui, sans-serif" font-size="12" font-weight="600" fill="#2d4a26">4 classes · 12 credit hrs</text>
  <rect x="1040" y="454" width="88" height="28" rx="8" fill="#14213d"/>
  <text x="1084" y="472" font-family="system-ui, sans-serif" font-size="12" font-weight="600" fill="#fca311" text-anchor="middle">View Schedule →</text>

  <!-- Bottom strip -->
  <rect x="0" y="590" width="1200" height="40" fill="#14213d"/>
  <text x="600" y="615" font-family="system-ui, sans-serif" font-size="12" fill="#ffffff" opacity="0.6" text-anchor="middle">dalclasses.com · Not affiliated with or endorsed by Dalhousie University</text>

  <defs>
    <filter id="shadow" x="-5%" y="-5%" width="110%" height="120%">
      <feDropShadow dx="0" dy="4" stdDeviation="8" flood-color="#00000018"/>
    </filter>
  </defs>
</svg>
